<svg width="42" height="43" viewBox="0 0 42 43" fill="none" xmlns="http://www.w3.org/2000/svg">
<rect y="0.819824" width="42" height="42" rx="12" fill="#42D8FA" fill-opacity="0.1"/>
<rect x="0.5" y="1.31982" width="41" height="41" rx="11.5" stroke="#42D8FA" stroke-opacity="0.2"/>
<path d="M13 23.82C12.8108 23.8206 12.6252 23.7676 12.465 23.667C12.3047 23.5664 12.1762 23.4223 12.0945 23.2516C12.0129 23.0809 11.9813 22.8906 12.0035 22.7026C12.0257 22.5147 12.1008 22.3369 12.22 22.19L22.12 11.99C22.1943 11.9043 22.2955 11.8463 22.407 11.8257C22.5185 11.8051 22.6337 11.823 22.7337 11.8765C22.8337 11.93 22.9126 12.0159 22.9573 12.1201C23.0021 12.2243 23.0101 12.3406 22.98 12.45L21.06 18.47C21.0034 18.6215 20.9844 18.7845 21.0046 18.945C21.0248 19.1055 21.0837 19.2587 21.1761 19.3914C21.2685 19.5242 21.3918 19.6325 21.5353 19.7071C21.6788 19.7818 21.8382 19.8205 22 19.82H29C29.1892 19.8193 29.3748 19.8724 29.535 19.973C29.6953 20.0736 29.8238 20.2176 29.9055 20.3883C29.9871 20.559 30.0187 20.7494 29.9965 20.9373C29.9743 21.1253 29.8992 21.303 29.78 21.45L19.88 31.65C19.8057 31.7357 19.7045 31.7936 19.593 31.8143C19.4815 31.8349 19.3663 31.817 19.2663 31.7635C19.1663 31.71 19.0874 31.6241 19.0427 31.5199C18.9979 31.4157 18.9899 31.2993 19.02 31.19L20.94 25.17C20.9966 25.0185 21.0156 24.8555 20.9954 24.695C20.9752 24.5345 20.9163 24.3813 20.8239 24.2486C20.7315 24.1158 20.6082 24.0075 20.4647 23.9328C20.3212 23.8582 20.1618 23.8195 20 23.82H13Z" stroke="#42D8FA" stroke-width="2" stroke-linecap="round" stroke-linejoin="round"/>
</svg>
