<svg width="45" height="45" viewBox="0 0 45 45" fill="none" xmlns="http://www.w3.org/2000/svg">
<rect x="0.910004" y="0.25" width="44.1" height="44.1" rx="12" fill="#42D8FA" fill-opacity="0.1"/>
<rect x="1.41" y="0.75" width="43.1" height="43.1" rx="11.5" stroke="#42D8FA" stroke-opacity="0.2"/>
<path d="M22.96 14.9503C22.9613 14.5303 22.8785 14.1144 22.7166 13.7268C22.5547 13.3393 22.317 12.9881 22.0174 12.6938C21.7178 12.3995 21.3624 12.1681 20.972 12.0132C20.5817 11.8582 20.1643 11.7829 19.7444 11.7917C19.3245 11.8005 18.9106 11.8931 18.5271 12.0641C18.1435 12.2352 17.798 12.4812 17.5109 12.7877C17.2239 13.0942 17.001 13.4551 16.8554 13.849C16.7098 14.2429 16.6444 14.662 16.6632 15.0815C16.046 15.2402 15.473 15.5373 14.9876 15.9502C14.5022 16.3632 14.1172 16.8811 13.8616 17.4649C13.606 18.0487 13.4867 18.6829 13.5125 19.3197C13.5384 19.9564 13.7088 20.5789 14.0109 21.14C13.4798 21.5715 13.0621 22.1262 12.7943 22.7559C12.5264 23.3856 12.4165 24.0712 12.474 24.7531C12.5316 25.4349 12.7549 26.0924 13.1245 26.6683C13.494 27.2442 13.9988 27.7211 14.5947 28.0574C14.5211 28.6268 14.565 29.2052 14.7237 29.7569C14.8824 30.3086 15.1525 30.8219 15.5174 31.2652C15.8823 31.7084 16.3341 32.0721 16.845 32.3338C17.356 32.5956 17.9152 32.7498 18.488 32.787C19.0609 32.8242 19.6353 32.7435 20.1758 32.55C20.7163 32.3565 21.2114 32.0542 21.6305 31.6618C22.0495 31.2695 22.3837 30.7954 22.6124 30.2688C22.8411 29.7422 22.9594 29.1744 22.96 28.6003V14.9503Z" stroke="#42D8FA" stroke-width="2.1" stroke-linecap="round" stroke-linejoin="round"/>
<path d="M22.96 14.9503C22.9588 14.5303 23.0415 14.1144 23.2034 13.7268C23.3653 13.3393 23.603 12.9881 23.9026 12.6938C24.2022 12.3995 24.5577 12.1681 24.948 12.0132C25.3384 11.8582 25.7558 11.7829 26.1756 11.7917C26.5955 11.8005 27.0094 11.8931 27.393 12.0641C27.7765 12.2352 28.122 12.4812 28.4091 12.7877C28.6962 13.0942 28.9191 13.4551 29.0647 13.849C29.2102 14.2429 29.2756 14.662 29.2569 15.0815C29.874 15.2402 30.447 15.5373 30.9324 15.9502C31.4178 16.3632 31.8029 16.8811 32.0584 17.4649C32.314 18.0487 32.4334 18.6829 32.4075 19.3197C32.3816 19.9564 32.2112 20.5789 31.9092 21.14C32.4403 21.5715 32.8579 22.1262 33.1257 22.7559C33.3936 23.3856 33.5035 24.0712 33.446 24.7531C33.3884 25.4349 33.1651 26.0924 32.7956 26.6683C32.426 27.2442 31.9213 27.7211 31.3254 28.0574C31.3989 28.6268 31.355 29.2052 31.1963 29.7569C31.0376 30.3086 30.7675 30.8219 30.4026 31.2652C30.0378 31.7084 29.5859 32.0721 29.075 32.3338C28.564 32.5956 28.0049 32.7498 27.432 32.787C26.8591 32.8242 26.2847 32.7435 25.7442 32.55C25.2037 32.3565 24.7086 32.0542 24.2896 31.6618C23.8705 31.2695 23.5363 30.7954 23.3076 30.2688C23.0789 29.7422 22.9606 29.1744 22.96 28.6003V14.9503Z" stroke="#42D8FA" stroke-width="2.1" stroke-linecap="round" stroke-linejoin="round"/>
<path d="M26.11 23.3504C25.2285 23.0403 24.4587 22.4757 23.898 21.7281C23.3373 20.9806 23.0109 20.0835 22.96 19.1504C22.9092 20.0835 22.5827 20.9806 22.022 21.7281C21.4613 22.4757 20.6916 23.0403 19.81 23.3504" stroke="#42D8FA" stroke-width="2.1" stroke-linecap="round" stroke-linejoin="round"/>
<path d="M28.839 16.5253C29.0931 16.0849 29.2368 15.5896 29.2579 15.0815" stroke="#42D8FA" stroke-width="2.1" stroke-linecap="round" stroke-linejoin="round"/>
<path d="M16.6632 15.0815C16.6839 15.5895 16.8273 16.0848 17.0811 16.5253" stroke="#42D8FA" stroke-width="2.1" stroke-linecap="round" stroke-linejoin="round"/>
<path d="M14.0109 21.1409C14.203 20.9845 14.4085 20.8453 14.6251 20.7251" stroke="#42D8FA" stroke-width="2.1" stroke-linecap="round" stroke-linejoin="round"/>
<path d="M31.2949 20.7251C31.5115 20.8453 31.7171 20.9845 31.9092 21.1409" stroke="#42D8FA" stroke-width="2.1" stroke-linecap="round" stroke-linejoin="round"/>
<path d="M16.66 28.6004C15.9364 28.6007 15.2249 28.4141 14.5947 28.0586" stroke="#42D8FA" stroke-width="2.1" stroke-linecap="round" stroke-linejoin="round"/>
<path d="M31.3254 28.0586C30.6951 28.4141 29.9836 28.6007 29.26 28.6004" stroke="#42D8FA" stroke-width="2.1" stroke-linecap="round" stroke-linejoin="round"/>
</svg>
