<svg width="43" height="43" viewBox="0 0 43 43" fill="none" xmlns="http://www.w3.org/2000/svg">
<rect x="0.0700073" y="0.819824" width="42" height="42" rx="12" fill="#42D8FA" fill-opacity="0.1"/>
<rect x="0.570007" y="1.31982" width="41" height="41" rx="11.5" stroke="#42D8FA" stroke-opacity="0.2"/>
<path d="M27.07 11.8198H15.07C13.9654 11.8198 13.07 12.7153 13.07 13.8198V29.8198C13.07 30.9244 13.9654 31.8198 15.07 31.8198H27.07C28.1746 31.8198 29.07 30.9244 29.07 29.8198V13.8198C29.07 12.7153 28.1746 11.8198 27.07 11.8198Z" stroke="#42D8FA" stroke-width="2" stroke-linecap="round" stroke-linejoin="round"/>
<path d="M18.07 31.8198V27.8198H24.07V31.8198" stroke="#42D8FA" stroke-width="2" stroke-linecap="round" stroke-linejoin="round"/>
<path d="M17.07 15.8198H17.08" stroke="#42D8FA" stroke-width="2" stroke-linecap="round" stroke-linejoin="round"/>
<path d="M25.07 15.8198H25.08" stroke="#42D8FA" stroke-width="2" stroke-linecap="round" stroke-linejoin="round"/>
<path d="M21.07 15.8198H21.08" stroke="#42D8FA" stroke-width="2" stroke-linecap="round" stroke-linejoin="round"/>
<path d="M21.07 19.8198H21.08" stroke="#42D8FA" stroke-width="2" stroke-linecap="round" stroke-linejoin="round"/>
<path d="M21.07 23.8198H21.08" stroke="#42D8FA" stroke-width="2" stroke-linecap="round" stroke-linejoin="round"/>
<path d="M25.07 19.8198H25.08" stroke="#42D8FA" stroke-width="2" stroke-linecap="round" stroke-linejoin="round"/>
<path d="M25.07 23.8198H25.08" stroke="#42D8FA" stroke-width="2" stroke-linecap="round" stroke-linejoin="round"/>
<path d="M17.07 19.8198H17.08" stroke="#42D8FA" stroke-width="2" stroke-linecap="round" stroke-linejoin="round"/>
<path d="M17.07 23.8198H17.08" stroke="#42D8FA" stroke-width="2" stroke-linecap="round" stroke-linejoin="round"/>
</svg>
