<svg width="172" height="173" viewBox="0 0 172 173" fill="none" xmlns="http://www.w3.org/2000/svg">
<g clip-path="url(#clip0_2780_1796)">
<g clip-path="url(#clip1_2780_1796)">
<g clip-path="url(#clip2_2780_1796)">
<path d="M86 164.98C129.078 164.98 164 130.059 164 86.9805C164 43.9023 129.078 8.98047 86 8.98047C42.9218 8.98047 8 43.9023 8 86.9805C8 130.059 42.9218 164.98 86 164.98Z" fill="url(#paint0_linear_2780_1796)" stroke="#060606" stroke-width="16"/>
<path d="M86 116.98C102.569 116.98 116 103.549 116 86.9805C116 70.4119 102.569 56.9805 86 56.9805C69.4315 56.9805 56 70.4119 56 86.9805C56 103.549 69.4315 116.98 86 116.98Z" fill="white"/>
<path d="M78.6396 92.6252C78.7611 92.6967 78.8969 92.7324 79.0327 92.7324C79.3042 92.7324 79.5686 92.5895 79.7116 92.3394L84.4352 84.164C84.6496 83.7853 84.521 83.3065 84.1494 83.0921C83.7706 82.8777 83.2918 83.0063 83.0775 83.3779L78.3538 91.5533C78.1394 91.932 78.268 92.4108 78.6396 92.6252Z" fill="url(#paint1_linear_2780_1796)"/>
<path d="M88.5654 94.5977C88.6869 94.6692 88.8227 94.7049 88.9585 94.7049C89.23 94.7049 89.4944 94.562 89.6373 94.3119L91.917 90.3672C92.1314 89.9884 92.0028 89.5096 91.6312 89.2952C91.2524 89.0808 90.7736 89.2095 90.5592 89.5811L88.2796 93.5258C88.0652 93.9045 88.1938 94.3833 88.5654 94.5977Z" fill="url(#paint2_linear_2780_1796)"/>
<path d="M91.1278 38.2356C90.0996 38.1151 89.2452 37.7888 88.5647 37.2568C87.8848 36.72 87.3945 36.0274 87.094 35.1791C86.7982 34.3313 86.7126 33.3782 86.8374 32.3198C86.9622 31.2614 87.267 30.3541 87.7519 29.5977C88.2415 28.8419 88.8792 28.2839 89.6649 27.9237C90.4512 27.5587 91.3584 27.4365 92.3866 27.557C93.572 27.6959 94.5248 28.1082 95.2451 28.7941C95.9659 29.4752 96.4268 30.3351 96.6277 31.3739L94.8363 31.6476C94.7153 30.9549 94.4364 30.393 93.9998 29.9617C93.5638 29.5257 92.9626 29.2628 92.1961 29.173C91.5059 29.0921 90.9117 29.1789 90.4136 29.4333C89.9202 29.6882 89.5239 30.082 89.2246 30.6147C88.9307 31.1432 88.7371 31.7822 88.644 32.5315C88.5556 33.2813 88.5926 33.9497 88.7551 34.5365C88.9229 35.1191 89.2195 35.5917 89.6449 35.9543C90.0703 36.3169 90.6281 36.5386 91.3183 36.6195C92.0848 36.7093 92.7307 36.5926 93.2563 36.2692C93.7819 35.9459 94.1838 35.4637 94.462 34.8227L96.1409 35.503C95.704 36.467 95.0554 37.1993 94.1952 37.7C93.3356 38.1959 92.3132 38.3744 91.1278 38.2356Z" fill="white"/>
<path d="M101.538 40.5405C100.805 40.2867 100.221 39.9003 99.7879 39.3812C99.3546 38.8621 99.0869 38.2611 98.9846 37.5783C98.8884 36.8925 98.9715 36.1726 99.2338 35.4187C99.5009 34.6512 99.889 34.0318 100.398 33.5604C100.907 33.089 101.492 32.7856 102.153 32.6501C102.814 32.5145 103.505 32.5713 104.225 32.8203C104.963 33.0757 105.549 33.4629 105.982 33.982C106.415 34.5011 106.682 35.1043 106.783 35.7917C106.885 36.4745 106.805 37.1929 106.543 37.9468C106.279 38.7053 105.891 39.3225 105.381 39.7984C104.876 40.2713 104.293 40.5778 103.63 40.7178C102.969 40.8533 102.272 40.7942 101.538 40.5405ZM102.071 39.01C102.723 39.2355 103.283 39.1864 103.751 38.8627C104.218 38.5389 104.572 38.0339 104.81 37.3477C105.057 36.6389 105.093 36.0189 104.917 35.4879C104.744 34.9523 104.335 34.5733 103.692 34.3508C103.253 34.1989 102.856 34.1729 102.502 34.2729C102.153 34.3699 101.85 34.571 101.592 34.8761C101.335 35.1768 101.126 35.5573 100.966 36.0178C100.719 36.7266 100.683 37.3488 100.857 37.8844C101.037 38.4171 101.441 38.7923 102.071 39.01Z" fill="white"/>
<path d="M112.263 45.3722L114.163 42.1616C114.287 41.9516 114.41 41.7106 114.532 41.4384C114.654 41.1662 114.731 40.8812 114.762 40.5835C114.8 40.2841 114.759 39.9963 114.638 39.7202C114.522 39.4465 114.286 39.2053 113.931 38.9965C113.741 38.8848 113.535 38.8053 113.313 38.7578C113.091 38.7103 112.858 38.7178 112.615 38.7802C112.379 38.841 112.138 38.9764 111.891 39.1865C111.647 39.3924 111.404 39.6991 111.163 40.1066L110.5 39.2092C110.836 38.6412 111.25 38.191 111.741 37.8587C112.237 37.5287 112.78 37.3542 113.37 37.335C113.963 37.3117 114.573 37.4845 115.2 37.8535C115.696 38.1448 116.056 38.4675 116.28 38.8215C116.505 39.1755 116.637 39.5359 116.676 39.9028C116.715 40.2697 116.694 40.6239 116.615 40.9654C116.535 41.3069 116.431 41.6146 116.302 41.8885C116.18 42.1607 116.072 42.3771 115.977 42.5376L113.774 46.2607L112.263 45.3722ZM107.625 42.6448L111.569 35.9766L112.901 36.7595L111.677 38.8279L111.857 38.9335L109.136 43.5333L107.625 42.6448Z" fill="white"/>
<path d="M119.456 50.8546C119.003 50.5974 118.592 50.3043 118.224 49.9755C117.857 49.6534 117.58 49.3035 117.392 48.9258C117.207 48.5445 117.156 48.1486 117.241 47.738C117.322 47.3684 117.472 47.0474 117.691 46.7749C117.91 46.5024 118.161 46.1983 118.446 45.8626L122.806 40.7238L124.124 41.8348L119.829 46.897C119.627 47.1342 119.453 47.3437 119.305 47.5256C119.16 47.7105 119.075 47.8888 119.049 48.0606C118.995 48.3906 119.101 48.6903 119.369 48.9596C119.636 49.229 119.978 49.4922 120.394 49.7491L119.456 50.8546ZM119.46 42.4926L120.337 41.4582L124.471 44.9441L123.593 45.9785L119.46 42.4926Z" fill="white"/>
<path d="M122.58 54.3568C122.216 53.9312 121.989 53.5029 121.898 53.0719C121.81 52.6378 121.836 52.2297 121.975 51.8476C122.118 51.4691 122.351 51.142 122.676 50.8661C122.961 50.6244 123.256 50.4548 123.564 50.3572C123.874 50.2565 124.196 50.2347 124.528 50.2916C124.863 50.3455 125.218 50.4839 125.591 50.7068C125.869 50.8782 126.175 51.0957 126.508 51.3595C126.843 51.6269 127.195 51.9244 127.563 52.2521C127.938 52.5803 128.331 52.9217 128.741 53.2764L128.072 53.035C128.483 52.6915 128.707 52.3449 128.741 51.9951C128.776 51.6453 128.606 51.2504 128.229 50.8103C128.003 50.5447 127.721 50.341 127.386 50.199C127.051 50.057 126.689 50.0655 126.303 50.2246L125.654 48.7034C126.279 48.4243 126.916 48.3599 127.567 48.51C128.221 48.6638 128.845 49.0881 129.439 49.7829C129.887 50.3067 130.194 50.8396 130.361 51.3818C130.532 51.9276 130.504 52.4627 130.279 52.9871C130.161 53.2692 130.002 53.5142 129.802 53.7219C129.605 53.9266 129.379 54.1374 129.124 54.3544L125.495 57.4365L124.511 56.2852L125.792 55.1974L125.747 55.565C125.093 55.6621 124.514 55.6176 124.009 55.4316C123.51 55.2461 123.034 54.8879 122.58 54.3568ZM123.855 53.7261C124.109 54.0244 124.38 54.2341 124.666 54.3552C124.952 54.4763 125.225 54.5336 125.484 54.5271C125.746 54.5242 125.963 54.4873 126.135 54.4163C126.362 54.3428 126.586 54.2183 126.808 54.0427C127.036 53.8677 127.217 53.7228 127.352 53.6082L127.577 54.1142C127.176 53.7704 126.831 53.4768 126.541 53.2334C126.251 52.9899 125.997 52.785 125.779 52.6184C125.565 52.4488 125.366 52.3075 125.181 52.1945C124.996 52.0882 124.821 52.0133 124.658 51.9698C124.495 51.9263 124.341 51.9158 124.197 51.9381C124.055 51.9641 123.921 52.0314 123.793 52.1399C123.647 52.2638 123.549 52.4102 123.498 52.579C123.45 52.7448 123.453 52.9246 123.505 53.1186C123.561 53.3163 123.677 53.5188 123.855 53.7261Z" fill="white"/>
<path d="M128.726 62.8128C128.328 62.1201 128.143 61.4411 128.171 60.7761C128.202 60.1087 128.411 59.4913 128.798 58.924C129.187 58.3608 129.72 57.8838 130.396 57.493C131.089 57.1034 131.778 56.8895 132.462 56.8514C133.154 56.815 133.793 56.9571 134.38 57.2776C134.971 57.5957 135.462 58.095 135.852 58.7753C136.29 59.5386 136.466 60.294 136.381 61.0415C136.303 61.7907 135.977 62.436 135.404 62.9773L134.142 61.7151C134.438 61.3926 134.608 61.0396 134.653 60.6561C134.702 60.2702 134.628 59.9051 134.43 59.5608C134.207 59.1708 133.929 58.9027 133.596 58.7564C133.268 58.6077 132.907 58.5657 132.514 58.6304C132.12 58.6951 131.717 58.8449 131.306 59.0797C130.665 59.445 130.229 59.8835 129.998 60.3951C129.767 60.9066 129.813 61.4445 130.136 62.0087C130.365 62.407 130.636 62.668 130.95 62.7918C131.266 62.9197 131.63 62.9433 132.042 62.8626L132.577 64.5891C131.771 64.773 131.035 64.7113 130.367 64.4039C129.704 64.094 129.156 63.5637 128.726 62.8128Z" fill="white"/>
<path d="M133.192 72.2288C132.924 71.7825 132.711 71.3261 132.552 70.8596C132.392 70.3992 132.322 69.9585 132.345 69.5374C132.372 69.1147 132.523 68.7453 132.799 68.4292C133.052 68.1472 133.341 67.9411 133.666 67.8109C133.991 67.6808 134.36 67.5393 134.773 67.3866L141.104 65.0479L141.703 66.6611L135.467 68.9648C135.175 69.0728 134.92 69.1696 134.701 69.2555C134.484 69.3458 134.322 69.4593 134.214 69.5959C134.005 69.8568 133.95 70.1701 134.05 70.5357C134.15 70.9013 134.318 71.298 134.554 71.7257L133.192 72.2288ZM137.318 64.9484L138.592 64.4777L140.473 69.5389L139.199 70.0097L137.318 64.9484Z" fill="white"/>
<path d="M135.111 82.7824C135.04 81.9636 135.144 81.2279 135.424 80.5753C135.705 79.9275 136.133 79.4012 136.709 78.9965C137.285 78.5966 137.981 78.3613 138.798 78.2907L145.266 77.7317L145.432 79.473L138.992 80.0295C138.606 80.0629 138.265 80.1571 137.971 80.3121C137.677 80.4718 137.432 80.6728 137.236 80.9151C137.046 81.1571 136.908 81.428 136.824 81.7279C136.739 82.0278 136.71 82.3325 136.737 82.6419C136.765 82.9609 136.846 83.2585 136.981 83.5346C137.12 83.8151 137.305 84.0582 137.535 84.2638C137.769 84.469 138.045 84.6226 138.361 84.7248C138.678 84.8269 139.028 84.8614 139.41 84.8284L145.849 84.2719L146.001 86.0144L139.518 86.5746C138.702 86.6452 137.975 86.5305 137.338 86.2306C136.701 85.9355 136.188 85.4906 135.8 84.8958C135.412 84.3058 135.182 83.6013 135.111 82.7824Z" fill="white"/>
<path d="M135.027 93.091C135.139 92.1418 135.445 91.3958 135.943 90.8529C136.442 90.3101 137.087 90.0202 137.878 89.9833L137.942 91.7664C137.55 91.8118 137.227 91.9759 136.971 92.2586C136.716 92.5413 136.56 92.9176 136.505 93.3874C136.456 93.8003 136.499 94.1278 136.635 94.3699C136.774 94.6173 136.987 94.7578 137.273 94.7913C137.449 94.812 137.594 94.7858 137.709 94.7127C137.828 94.6449 137.954 94.4769 138.087 94.2087C138.22 93.9404 138.397 93.5257 138.618 92.9647C138.866 92.3394 139.11 91.8484 139.35 91.4917C139.595 91.1355 139.863 90.8903 140.154 90.7561C140.444 90.6219 140.783 90.5775 141.168 90.6228C141.649 90.6793 142.053 90.8544 142.38 91.1479C142.708 91.4414 142.94 91.8247 143.077 92.298C143.219 92.7718 143.253 93.3148 143.181 93.927C143.11 94.525 142.955 95.0432 142.715 95.4817C142.474 95.925 142.166 96.2688 141.789 96.5133C141.413 96.7577 140.99 96.886 140.52 96.8982L140.413 95.1101C140.747 95.106 141.024 94.987 141.244 94.7531C141.465 94.5239 141.612 94.1996 141.685 93.78C141.757 93.3794 141.733 93.047 141.615 92.7829C141.501 92.5193 141.314 92.3722 141.052 92.3414C140.904 92.324 140.772 92.359 140.656 92.4464C140.539 92.5337 140.411 92.7207 140.271 93.0074C140.13 93.2988 139.948 93.7346 139.725 94.3146C139.496 94.9084 139.257 95.3759 139.009 95.7173C138.766 96.064 138.494 96.3015 138.194 96.4298C137.893 96.5629 137.543 96.6059 137.143 96.5589C136.367 96.4677 135.791 96.1137 135.416 95.4969C135.039 94.8848 134.91 94.0828 135.027 93.091Z" fill="white"/>
<path d="M137.679 105.824L138.962 104.984L139.764 106.449L140.756 105.084L141.95 106.047L140.795 107.271L142.419 107.774L141.869 109.207L140.323 108.504L140.366 110.177L138.834 110.101L139.004 108.43L137.43 108.982L137.035 107.505L138.672 107.169L137.679 105.824Z" fill="white"/>
<path d="M125.684 116.938C126.303 116.11 127.013 115.535 127.816 115.214C128.622 114.895 129.469 114.818 130.356 114.982C131.24 115.15 132.111 115.553 132.968 116.19C133.825 116.826 134.461 117.543 134.876 118.34C135.288 119.14 135.454 119.97 135.374 120.829C135.298 121.69 134.951 122.534 134.332 123.362C133.619 124.316 132.785 124.933 131.829 125.212C130.877 125.494 129.899 125.462 128.896 125.117L129.554 123.433C130.216 123.675 130.844 123.715 131.437 123.553C132.033 123.395 132.562 123.007 133.023 122.39C133.439 121.834 133.66 121.278 133.688 120.721C133.713 120.167 133.569 119.628 133.256 119.103C132.944 118.585 132.486 118.099 131.881 117.644C131.274 117.193 130.675 116.891 130.084 116.738C129.494 116.591 128.935 116.611 128.407 116.797C127.88 116.983 127.408 117.354 126.993 117.91C126.532 118.527 126.311 119.143 126.329 119.758C126.347 120.374 126.565 120.962 126.983 121.523L125.553 122.632C124.934 121.773 124.621 120.847 124.616 119.854C124.615 118.864 124.971 117.892 125.684 116.938Z" fill="white"/>
<path d="M118.477 124.775C119.063 124.267 119.689 123.955 120.357 123.839C121.024 123.723 121.68 123.791 122.325 124.043C122.969 124.301 123.554 124.731 124.079 125.334C124.614 125.947 124.959 126.591 125.116 127.266C125.272 127.941 125.245 128.597 125.033 129.236C124.822 129.875 124.429 130.444 123.854 130.943C123.264 131.454 122.635 131.767 121.968 131.883C121.301 131.999 120.643 131.93 119.995 131.674C119.35 131.423 118.765 130.996 118.24 130.394C117.712 129.788 117.368 129.145 117.209 128.467C117.048 127.795 117.072 127.138 117.281 126.496C117.492 125.857 117.891 125.283 118.477 124.775ZM119.543 125.998C119.022 126.449 118.786 126.958 118.834 127.524C118.883 128.089 119.146 128.646 119.624 129.194C120.118 129.761 120.639 130.1 121.188 130.213C121.741 130.33 122.274 130.165 122.788 129.72C123.139 129.416 123.359 129.086 123.448 128.73C123.537 128.38 123.514 128.018 123.377 127.642C123.243 127.271 123.016 126.901 122.695 126.533C122.202 125.967 121.679 125.625 121.126 125.509C120.573 125.399 120.045 125.562 119.543 125.998Z" fill="white"/>
<path d="M108.929 131.626L110.78 134.864C110.901 135.076 111.05 135.302 111.226 135.543C111.402 135.784 111.612 135.992 111.856 136.167C112.097 136.349 112.368 136.456 112.669 136.489C112.965 136.524 113.292 136.44 113.65 136.237C113.841 136.128 114.013 135.989 114.165 135.82C114.317 135.651 114.426 135.447 114.492 135.205C114.556 134.971 114.559 134.694 114.498 134.377C114.44 134.063 114.294 133.701 114.059 133.29L115.169 133.162C115.497 133.735 115.683 134.317 115.728 134.907C115.769 135.5 115.652 136.056 115.375 136.576C115.101 137.101 114.648 137.543 114.015 137.902C113.515 138.186 113.055 138.337 112.635 138.356C112.216 138.374 111.836 138.309 111.498 138.161C111.159 138.012 110.861 137.819 110.603 137.58C110.345 137.342 110.129 137.099 109.955 136.851C109.778 136.61 109.644 136.409 109.551 136.247L107.405 132.492L108.929 131.626ZM113.607 128.967L117.452 135.693L116.109 136.456L114.917 134.37L114.735 134.473L112.083 129.833L113.607 128.967Z" fill="white"/>
<path d="M100.586 135.15C101.035 134.886 101.494 134.677 101.964 134.523C102.427 134.366 102.869 134.3 103.291 134.326C103.715 134.356 104.084 134.509 104.399 134.787C104.68 135.041 104.885 135.331 105.013 135.656C105.141 135.98 105.28 136.349 105.431 136.763L107.73 143.091L106.107 143.677L103.843 137.443C103.736 137.151 103.641 136.896 103.557 136.677C103.468 136.46 103.355 136.298 103.219 136.189C102.959 135.978 102.645 135.921 102.277 136.018C101.91 136.115 101.511 136.28 101.08 136.512L100.586 135.15ZM107.857 139.317L108.32 140.591L103.23 142.429L102.767 141.155L107.857 139.317Z" fill="white"/>
<path d="M95.9739 136.093C96.5255 135.992 97.0112 136.009 97.4312 136.146C97.8521 136.288 98.1937 136.514 98.4559 136.825C98.7133 137.138 98.8807 137.503 98.9579 137.921C99.0256 138.288 99.0251 138.628 98.9564 138.942C98.8885 139.261 98.7468 139.549 98.5313 139.807C98.3166 140.07 98.0192 140.307 97.639 140.518C97.3508 140.673 97.009 140.828 96.6137 140.983C96.2136 141.139 95.7792 141.294 95.3106 141.448C94.8381 141.608 94.3452 141.776 93.832 141.953L94.3763 141.495C94.4688 142.023 94.6582 142.389 94.9446 142.594C95.231 142.799 95.6594 142.849 96.2298 142.744C96.5739 142.681 96.8915 142.54 97.1825 142.321C97.4736 142.103 97.6467 141.787 97.702 141.373L99.3474 141.574C99.2777 142.253 99.0149 142.835 98.559 143.322C98.0984 143.81 97.4179 144.137 96.5175 144.302C95.8387 144.427 95.222 144.426 94.6674 144.299C94.1081 144.173 93.6571 143.882 93.3144 143.425C93.1282 143.182 92.9949 142.922 92.9146 142.646C92.8351 142.374 92.765 142.073 92.7042 141.744L91.8412 137.07L93.3331 136.796L93.6377 138.446L93.3408 138.223C93.5834 137.61 93.9118 137.132 94.326 136.789C94.7364 136.451 95.2857 136.219 95.9739 136.093ZM95.8845 137.509C95.4979 137.58 95.1805 137.708 94.9323 137.895C94.684 138.081 94.498 138.288 94.3742 138.515C94.2457 138.743 94.1692 138.948 94.1447 139.133C94.0951 139.365 94.0911 139.621 94.1329 139.9C94.1708 140.185 94.2058 140.414 94.238 140.588L93.6861 140.529C94.1851 140.355 94.6129 140.203 94.9693 140.075C95.3257 139.946 95.6307 139.829 95.8842 139.725C96.1387 139.624 96.3611 139.523 96.5517 139.42C96.7367 139.313 96.8888 139.2 97.0082 139.081C97.1275 138.962 97.2136 138.834 97.2665 138.698C97.3146 138.563 97.3235 138.413 97.2931 138.249C97.2584 138.061 97.1805 137.903 97.0593 137.774C96.939 137.651 96.7814 137.563 96.5867 137.511C96.3872 137.46 96.1532 137.459 95.8845 137.509Z" fill="white"/>
<path d="M85.5118 137.16C86.3123 137.164 86.9946 137.343 87.5587 137.699C88.1229 138.06 88.5547 138.549 88.8542 139.167C89.1489 139.784 89.297 140.482 89.2987 141.261C89.2907 142.055 89.1321 142.757 88.8229 143.367C88.5088 143.982 88.0659 144.463 87.4941 144.81C86.9223 145.161 86.2434 145.335 85.4573 145.332C84.5754 145.328 83.831 145.103 83.224 144.656C82.6123 144.214 82.2145 143.61 82.0307 142.845L83.758 142.386C83.8906 142.802 84.1122 143.126 84.4228 143.356C84.7334 143.592 85.0876 143.71 85.4854 143.712C85.936 143.714 86.3079 143.608 86.6011 143.394C86.8944 143.185 87.1112 142.894 87.2517 142.522C87.3922 142.15 87.4634 141.727 87.4653 141.254C87.4683 140.518 87.3053 139.923 86.9764 139.467C86.6475 139.012 86.1572 138.783 85.5053 138.78C85.0452 138.779 84.6829 138.882 84.4184 139.091C84.1491 139.301 83.9466 139.603 83.8108 139.999L82.0437 139.598C82.2866 138.811 82.7084 138.205 83.3093 137.782C83.9101 137.364 84.6443 137.157 85.5118 137.16Z" fill="white"/>
<path d="M75.0822 136.327C75.6039 136.318 76.1069 136.362 76.5913 136.458C77.0718 136.549 77.4895 136.709 77.8444 136.938C78.1985 137.172 78.4441 137.487 78.5811 137.883C78.7001 138.243 78.7352 138.595 78.6864 138.941C78.6376 139.286 78.5765 139.676 78.5031 140.109L77.379 146.746L75.6776 146.46L76.7849 139.922C76.8367 139.615 76.8799 139.346 76.9142 139.115C76.9439 138.882 76.9262 138.685 76.8611 138.524C76.7389 138.213 76.4938 138.009 76.1261 137.914C75.7583 137.818 75.3297 137.765 74.8404 137.755L75.0822 136.327ZM79.3539 143.524L79.1277 144.86L73.7894 143.961L74.0156 142.625L79.3539 143.524Z" fill="white"/>
<path d="M64.9311 132.721C65.6782 133.069 66.2653 133.526 66.6925 134.094C67.1154 134.66 67.3589 135.291 67.423 135.991C67.4827 136.688 67.3394 137.407 66.9929 138.148L64.2483 144.014L62.6524 143.288L65.3848 137.448C65.5489 137.097 65.6372 136.756 65.6496 136.424C65.6577 136.09 65.6052 135.778 65.4922 135.488C65.3772 135.203 65.2105 134.949 64.9922 134.726C64.7738 134.503 64.5234 134.326 64.2411 134.195C63.9501 134.059 63.6509 133.982 63.3437 133.96C63.0301 133.941 62.7267 133.978 62.4333 134.074C62.138 134.174 61.8668 134.336 61.6199 134.559C61.3729 134.78 61.1684 135.065 61.0063 135.411L58.2739 141.251L56.684 140.512L59.4347 134.633C59.7812 133.892 60.2438 133.322 60.8226 132.921C61.397 132.519 62.0397 132.298 62.7506 132.26C63.4571 132.219 64.1839 132.374 64.9311 132.721Z" fill="white"/>
<path d="M56.0941 127.526C56.8626 128.097 57.358 128.734 57.5804 129.436C57.8028 130.138 57.7323 130.839 57.369 131.541L55.7879 130.705C55.9441 130.344 55.9633 129.983 55.8453 129.621C55.7274 129.259 55.4782 128.937 55.0978 128.654C54.7636 128.406 54.4574 128.279 54.1794 128.275C53.8947 128.272 53.6664 128.386 53.4944 128.615C53.3884 128.757 53.3385 128.896 53.3446 129.032C53.344 129.168 53.427 129.361 53.5935 129.61C53.76 129.859 54.0318 130.219 54.4089 130.69C54.8282 131.217 55.1329 131.673 55.3228 132.058C55.5098 132.448 55.5889 132.802 55.5601 133.12C55.5312 133.438 55.4007 133.753 55.1686 134.063C54.8792 134.45 54.5252 134.711 54.1067 134.847C53.6881 134.983 53.239 134.992 52.7594 134.874C52.2769 134.759 51.7878 134.518 51.2922 134.149C50.808 133.789 50.4355 133.396 50.1746 132.97C49.9098 132.54 49.7653 132.102 49.741 131.655C49.7168 131.208 49.8168 130.778 50.0409 130.367L51.6479 131.168C51.4847 131.458 51.4496 131.757 51.5425 132.064C51.6315 132.369 51.8398 132.658 52.1674 132.931C52.4797 133.193 52.7802 133.339 53.0688 133.369C53.3546 133.403 53.5762 133.314 53.7338 133.103C53.8227 132.985 53.8583 132.853 53.8406 132.709C53.823 132.565 53.7246 132.36 53.5456 132.096C53.3627 131.829 53.0751 131.454 52.6826 130.972C52.2816 130.477 51.9947 130.037 51.822 129.652C51.6427 129.268 51.5722 128.915 51.6107 128.592C51.6452 128.266 51.7829 127.942 52.0236 127.62C52.4906 126.996 53.086 126.675 53.8098 126.659C54.5296 126.64 55.2911 126.929 56.0941 127.526Z" fill="white"/>
<path d="M43.7057 123.482L43.7962 125.009L42.1239 124.974L42.8164 126.51L41.3857 127.064L40.8946 125.456L39.6485 126.609L38.6754 125.421L40.0579 124.434L38.5801 123.639L39.4105 122.352L40.7779 123.33L41.0815 121.695L42.5643 122.089L42.0412 123.671L43.7057 123.482Z" fill="white"/>
<path d="M40.0137 107.574C40.426 108.521 40.5724 109.421 40.4531 110.275C40.3293 111.131 39.9751 111.902 39.3905 112.587C38.804 113.268 38.0205 113.821 37.04 114.245C36.0596 114.67 35.1196 114.863 34.22 114.825C33.3185 114.783 32.5142 114.514 31.807 114.018C31.0953 113.523 30.5334 112.803 30.1211 111.856C29.6458 110.764 29.5246 109.736 29.7573 108.77C29.9857 107.807 30.4998 106.977 31.2996 106.282L32.4372 107.689C31.8974 108.141 31.5502 108.664 31.3957 109.257C31.2367 109.852 31.3109 110.502 31.6182 111.208C31.8949 111.844 32.2688 112.312 32.7397 112.614C33.2087 112.911 33.7494 113.054 34.3618 113.045C34.9678 113.032 35.6191 112.878 36.3157 112.582C37.0104 112.281 37.5713 111.913 37.9985 111.478C38.4194 111.041 38.6801 110.548 38.7808 109.999C38.8814 109.45 38.7934 108.858 38.5166 108.222C38.2093 107.517 37.7834 107.018 37.2389 106.728C36.6944 106.437 36.0743 106.333 35.3786 106.416L35.1247 104.627C36.1803 104.519 37.1413 104.71 38.0077 105.2C38.8698 105.691 39.5384 106.483 40.0137 107.574Z" fill="white"/>
<path d="M36.7792 97.4325C36.9273 98.1925 36.8849 98.8895 36.6521 99.5237C36.4192 100.158 36.0322 100.69 35.4912 101.121C34.9446 101.548 34.2784 101.838 33.4926 101.99C32.6928 102.145 31.9606 102.121 31.2962 101.919C30.6318 101.716 30.0749 101.364 29.6255 100.863C29.1761 100.361 28.8788 99.7368 28.7334 98.991C28.5844 98.2263 28.6263 97.5269 28.8592 96.8928C29.0921 96.2587 29.4814 95.7257 30.0271 95.2938C30.5681 94.8629 31.2315 94.5713 32.0173 94.4191C32.8077 94.266 33.5375 94.2901 34.2066 94.4916C34.8701 94.6892 35.4289 95.0386 35.883 95.5396C36.3324 96.0416 36.6311 96.6726 36.7792 97.4325ZM35.1842 97.7415C35.0525 97.066 34.7289 96.6078 34.2132 96.3669C33.6975 96.126 33.0821 96.0749 32.3669 96.2134C31.6282 96.3565 31.0725 96.6369 30.6998 97.0547C30.3224 97.4735 30.1987 98.0159 30.3285 98.682C30.4171 99.137 30.5938 99.4923 30.8584 99.7477C31.1174 99.9994 31.4441 100.16 31.8385 100.23C32.2282 100.3 32.6631 100.289 33.143 100.196C33.8817 100.053 34.4397 99.7721 34.8171 99.3533C35.1889 98.9308 35.3112 98.3935 35.1842 97.7415Z" fill="white"/>
<path d="M35.5871 85.7251L31.8485 85.7049C31.604 85.7036 31.3331 85.7189 31.0358 85.7507C30.7384 85.7826 30.4528 85.8599 30.179 85.9827C29.9003 86.1006 29.6717 86.281 29.493 86.5237C29.3143 86.7617 29.2239 87.0862 29.2217 87.4971C29.2205 87.717 29.2553 87.9346 29.326 88.15C29.3967 88.3654 29.5203 88.562 29.6967 88.7398C29.8683 88.9128 30.1072 89.0526 30.4134 89.1594C30.7148 89.2662 31.1027 89.3208 31.5772 89.3234L31.1331 90.346C30.4716 90.3425 29.8732 90.2126 29.3378 89.9564C28.8023 89.6955 28.3778 89.3157 28.0642 88.817C27.7457 88.3183 27.5885 87.7058 27.5924 86.9794C27.5955 86.406 27.6939 85.9334 27.8877 85.5617C28.0814 85.19 28.3275 84.8951 28.6259 84.6768C28.9242 84.4586 29.2414 84.2979 29.5775 84.1945C29.9136 84.0912 30.2327 84.026 30.5348 83.999C30.8322 83.9672 31.0743 83.9517 31.2612 83.9527L35.5966 83.9761L35.5871 85.7251ZM35.558 91.0939L27.7932 91.052L27.8016 89.5109L30.2101 89.5239L30.2112 89.316L35.5674 89.3449L35.558 91.0939Z" fill="white"/>
<path d="M36.7112 76.7344C36.7165 77.2545 36.6693 77.7557 36.5694 78.238C36.475 78.7163 36.3115 79.1316 36.0789 79.4837C35.8416 79.8351 35.5237 80.0776 35.1252 80.2113C34.764 80.3274 34.4103 80.3598 34.064 80.3086C33.7178 80.2575 33.3275 80.1937 32.8933 80.1174L26.2447 78.9485L26.5444 77.2543L33.0938 78.4057C33.4006 78.4597 33.6701 78.5046 33.9022 78.5406C34.1352 78.5718 34.3327 78.5556 34.4949 78.4919C34.8081 78.3723 35.0141 78.1295 35.1129 77.7635C35.2117 77.3976 35.2677 76.9707 35.281 76.4829L36.7112 76.7344ZM29.4623 80.9408L28.1241 80.7055L29.0643 75.39L30.4025 75.6253L29.4623 80.9408Z" fill="white"/>
<path d="M38.1751 72.2896C37.9882 72.8167 37.7306 73.2277 37.4023 73.5226C37.0695 73.8158 36.7023 73.9981 36.3008 74.0694C35.9009 74.1362 35.4999 74.0988 35.0977 73.957C34.7452 73.8327 34.4497 73.6626 34.211 73.4467C33.9679 73.2292 33.7878 72.963 33.6707 72.648C33.5491 72.3314 33.4915 71.9563 33.4979 71.5226C33.5069 71.1963 33.5425 70.8237 33.6047 70.4046C33.6685 69.9811 33.7502 69.5284 33.8499 69.0465C33.9468 68.5586 34.0462 68.0488 34.1484 67.5171L34.2744 68.2154C33.7699 68.0324 33.3571 68.0136 33.0361 68.159C32.7151 68.3043 32.4579 68.6495 32.2646 69.1947C32.1479 69.5236 32.1121 69.8683 32.1571 70.2288C32.2021 70.5893 32.3905 70.8965 32.7224 71.1504L31.7274 72.4723C31.1722 72.0738 30.7966 71.5561 30.6005 70.9193C30.406 70.278 30.4613 69.5271 30.7666 68.6665C30.9967 68.0178 31.305 67.4853 31.6916 67.0691C32.0797 66.6484 32.5579 66.4039 33.1261 66.3356C33.43 66.2957 33.7224 66.3101 34.0031 66.3786C34.2793 66.4456 34.5756 66.5348 34.8919 66.6464L39.386 68.2307L38.8802 69.6567L37.2941 69.0975L37.6355 68.9517C38.0476 69.467 38.2996 69.9892 38.3915 70.5184C38.4806 71.0414 38.4084 71.6319 38.1751 72.2896ZM36.9887 71.5064C37.1198 71.137 37.1661 70.7985 37.1277 70.491C37.0894 70.1835 37.0024 69.9197 36.867 69.6996C36.7331 69.475 36.5922 69.3062 36.4441 69.1932C36.2666 69.0343 36.0462 68.9034 35.7827 68.8003C35.5164 68.6912 35.2996 68.6072 35.1324 68.5483L35.4589 68.1008C35.3616 68.6189 35.2799 69.0641 35.2141 69.4362C35.1482 69.8083 35.0976 70.1301 35.0623 70.4015C35.0225 70.6713 34.9999 70.9143 34.9945 71.1303C34.9952 71.3434 35.0175 71.5312 35.0616 71.6937C35.1056 71.8563 35.1736 71.9943 35.2655 72.1078C35.359 72.2168 35.4849 72.2992 35.643 72.3549C35.8238 72.4186 36.0002 72.4301 36.1722 72.3894C36.3398 72.3471 36.4945 72.2547 36.6366 72.1122C36.7803 71.9651 36.8976 71.7632 36.9887 71.5064Z" fill="white"/>
<path d="M42.4517 62.7389C42.0488 63.4285 41.5518 63.9279 40.9606 64.2372C40.3653 64.544 39.7245 64.6724 39.0383 64.6222C38.3544 64.568 37.6737 64.3469 36.9962 63.9589C36.3111 63.5555 35.7807 63.0677 35.405 62.4956C35.0275 61.9169 34.8311 61.2941 34.8159 60.6271C34.7965 59.9577 34.9847 59.2845 35.3803 58.6073C35.8242 57.8475 36.392 57.3172 37.0836 57.0165C37.7734 56.7093 38.4967 56.6676 39.2535 56.8914L38.7887 58.6124C38.3609 58.5188 37.9691 58.5484 37.6135 58.7013C37.2537 58.8519 36.9737 59.0985 36.7735 59.4412C36.5467 59.8294 36.4529 60.2035 36.4921 60.5636C36.5272 60.9214 36.6713 61.2539 36.9244 61.5613C37.1774 61.8686 37.509 62.1414 37.919 62.3795C38.5569 62.7499 39.1557 62.9069 39.7157 62.8505C40.2756 62.7941 40.7196 62.4851 41.0477 61.9235C41.2793 61.5271 41.3704 61.1625 41.3208 60.8295C41.2737 60.4924 41.112 60.1663 40.8358 59.851L42.0677 58.5258C42.6305 59.1291 42.9454 59.7959 43.0124 60.5261C43.0753 61.2539 42.8884 61.9915 42.4517 62.7389Z" fill="white"/>
<path d="M48.3797 54.1858C48.1268 54.6407 47.8375 55.0533 47.5119 55.4236C47.193 55.7931 46.8452 56.0738 46.4685 56.2656C46.0882 56.4543 45.6916 56.5088 45.2789 56.429C44.9073 56.3521 44.5836 56.2063 44.3078 55.9914C44.0321 55.7765 43.7242 55.5289 43.3844 55.2488L38.1811 50.9602L39.2805 49.6343L44.4062 53.859C44.6464 54.0569 44.8584 54.2286 45.0425 54.3741C45.2296 54.5159 45.4095 54.5991 45.582 54.6235C45.9136 54.6736 46.213 54.5638 46.4801 54.2941C46.7472 54.0245 47.0073 53.6808 47.2604 53.2632L48.3797 54.1858ZM39.9929 54.2764L38.9456 53.4132L42.3951 49.2531L43.4424 50.1163L39.9929 54.2764Z" fill="white"/>
<path d="M56.5881 47.1837C55.9142 47.6571 55.224 47.9374 54.5174 48.0245C53.8148 48.1089 53.1432 48.0049 52.5027 47.7125C51.866 47.4173 51.3117 46.9357 50.8396 46.2677L47.1001 40.9765L48.5259 39.9574L52.2488 45.2251C52.4724 45.5416 52.7254 45.7876 53.0079 45.9633C53.2943 46.1362 53.5917 46.2459 53.9001 46.2924C54.2057 46.3349 54.5098 46.3171 54.8123 46.239C55.1148 46.161 55.3934 46.0325 55.6481 45.8536C55.9106 45.6692 56.1277 45.4495 56.2993 45.1945C56.472 44.9328 56.5897 44.6514 56.6524 44.3501C56.7123 44.045 56.7068 43.7302 56.6359 43.4059C56.565 43.0816 56.4192 42.7632 56.1983 42.4507L52.4754 37.1829L53.9094 36.1755L57.6572 41.4784C58.1293 42.1464 58.3957 42.8303 58.4564 43.5301C58.5209 44.2271 58.3932 44.8927 58.0732 45.5267C57.7571 46.158 57.2621 46.7103 56.5881 47.1837Z" fill="white"/>
<path d="M65.4932 42.1329C64.6137 42.5131 63.8133 42.6248 63.092 42.4678C62.3706 42.3109 61.7952 41.9008 61.3657 41.2375L62.8796 40.286C63.1157 40.6007 63.4206 40.797 63.7941 40.8751C64.1677 40.9532 64.5721 40.8982 65.0075 40.7099C65.3901 40.5445 65.6523 40.3426 65.7941 40.1042C65.9385 39.8595 65.9534 39.6056 65.839 39.3426C65.7684 39.1804 65.6726 39.0681 65.5515 39.0059C65.4329 38.9374 65.2238 38.9132 64.9243 38.9333C64.6248 38.9534 64.1763 39.0092 63.5788 39.1009C62.9121 39.2016 62.3638 39.2382 61.9338 39.2105C61.5019 39.1785 61.1547 39.0707 60.892 38.8874C60.6294 38.704 60.4209 38.4348 60.2664 38.0797C60.0739 37.6369 60.0226 37.2007 60.1126 36.7711C60.2027 36.3415 60.4184 35.9487 60.7599 35.5927C61.0995 35.2324 61.5529 34.9296 62.1202 34.6843C62.6743 34.4448 63.2018 34.3183 63.7027 34.3048C64.208 34.2895 64.6613 34.3827 65.0624 34.5842C65.4636 34.7858 65.7874 35.086 66.0339 35.4846L64.5371 36.4755C64.366 36.1901 64.1235 36.0111 63.8098 35.9384C63.5004 35.8637 63.1453 35.9001 62.7444 36.0474C62.3611 36.187 62.0846 36.3743 61.9151 36.609C61.7436 36.8394 61.7103 37.0752 61.8152 37.3163C61.8743 37.4522 61.971 37.5485 62.1053 37.605C62.2396 37.6615 62.4663 37.6781 62.7853 37.6548C63.1087 37.6296 63.5779 37.5673 64.193 37.4681C64.8232 37.3675 65.3486 37.3383 65.7692 37.3804C66.1923 37.4163 66.5349 37.5312 66.7969 37.7252C67.0633 37.9174 67.2766 38.1976 67.4368 38.5658C67.7476 39.2805 67.7301 39.9548 67.3841 40.5888C67.0425 41.2208 66.4122 41.7355 65.4932 42.1329Z" fill="white"/>
<path d="M75.1963 33.4651L73.8243 32.7798L74.6917 31.3538L73.0104 31.1834L73.2445 29.6712L74.8871 30.0512L74.5083 28.3987L76.0269 28.1525L76.1928 29.8395L77.623 28.9613L78.3256 30.3216L76.7922 31.0132L78.0609 32.0929L76.9775 33.1763L75.8643 31.9334L75.1963 33.4651Z" fill="white"/>
</g>
</g>
</g>
<defs>
<linearGradient id="paint0_linear_2780_1796" x1="8" y1="86.9805" x2="164" y2="86.9805" gradientUnits="userSpaceOnUse">
<stop stop-color="#0A95A3"/>
<stop offset="1" stop-color="#12DCF0"/>
</linearGradient>
<linearGradient id="paint1_linear_2780_1796" x1="78.25" y1="87.8603" x2="84.539" y2="87.8603" gradientUnits="userSpaceOnUse">
<stop stop-color="#0A95A3"/>
<stop offset="1" stop-color="#12DCF0"/>
</linearGradient>
<linearGradient id="paint2_linear_2780_1796" x1="88.1758" y1="91.9481" x2="92.0208" y2="91.9481" gradientUnits="userSpaceOnUse">
<stop stop-color="#0A95A3"/>
<stop offset="1" stop-color="#12DCF0"/>
</linearGradient>
<clipPath id="clip0_2780_1796">
<rect y="0.980469" width="172" height="172" rx="86" fill="white"/>
</clipPath>
<clipPath id="clip1_2780_1796">
<rect width="172" height="172" fill="white" transform="translate(0 0.980469)"/>
</clipPath>
<clipPath id="clip2_2780_1796">
<rect width="172" height="172" fill="white" transform="translate(0 0.980469)"/>
</clipPath>
</defs>
</svg>
