<svg width="60" height="60" viewBox="0 0 60 60" fill="none" xmlns="http://www.w3.org/2000/svg">
<g clip-path="url(#clip0_3171_3577)">
<path d="M19.2864 55.7154C28.7542 55.7154 36.4293 48.0403 36.4293 38.5725C36.4293 29.1048 28.7542 21.4297 19.2864 21.4297C9.81867 21.4297 2.14355 29.1048 2.14355 38.5725C2.14355 48.0403 9.81867 55.7154 19.2864 55.7154Z" stroke="#12DCF0" stroke-width="2" stroke-linecap="round" stroke-linejoin="round"/>
<path d="M40.7151 55.7154C50.1829 55.7154 57.858 48.0403 57.858 38.5725C57.858 29.1048 50.1829 21.4297 40.7151 21.4297C31.2474 21.4297 23.5723 29.1048 23.5723 38.5725C23.5723 48.0403 31.2474 55.7154 40.7151 55.7154Z" stroke="#12DCF0" stroke-width="2" stroke-linecap="round" stroke-linejoin="round"/>
<path d="M30.0003 38.567C39.468 38.567 47.1431 30.8918 47.1431 21.4241C47.1431 11.9564 39.468 4.28125 30.0003 4.28125C20.5325 4.28125 12.8574 11.9564 12.8574 21.4241C12.8574 30.8918 20.5325 38.567 30.0003 38.567Z" stroke="#12DCF0" stroke-width="2" stroke-linecap="round" stroke-linejoin="round"/>
</g>
<defs>
<clipPath id="clip0_3171_3577">
<rect width="60" height="60" fill="white"/>
</clipPath>
</defs>
</svg>
