<svg width="60" height="60" viewBox="0 0 60 60" fill="none" xmlns="http://www.w3.org/2000/svg">
<g clip-path="url(#clip0_3171_3600)">
<path d="M45.6004 6.59375H14.4004C13.6811 6.6135 12.9766 6.80225 12.3437 7.14473C11.7109 7.48721 11.1675 7.97381 10.7576 8.56518L2.95757 19.3652C2.37839 20.1836 2.08914 21.1721 2.13572 22.1737C2.18231 23.1753 2.56206 24.1326 3.21472 24.8937L26.6147 51.8509C27.0153 52.3671 27.5287 52.7848 28.1155 53.0722C28.7023 53.3596 29.347 53.509 30.0004 53.509C30.6538 53.509 31.2986 53.3596 31.8854 53.0722C32.4722 52.7848 32.9855 52.3671 33.3861 51.8509L56.7861 24.8937C57.4388 24.1326 57.8186 23.1753 57.8651 22.1737C57.9117 21.1721 57.6225 20.1836 57.0433 19.3652L49.2433 8.56518C48.8333 7.97381 48.29 7.48721 47.6571 7.14473C47.0243 6.80225 46.3197 6.6135 45.6004 6.59375Z" stroke="#12DCF0" stroke-width="2" stroke-linecap="round" stroke-linejoin="round"/>
<path d="M27.7716 6.55469L17.3145 22.7547L30.0002 53.3975" stroke="#12DCF0" stroke-width="2" stroke-linecap="round" stroke-linejoin="round"/>
<path d="M32.3571 6.55469L42.7714 22.7547L30 53.3975" stroke="#12DCF0" stroke-width="2" stroke-linecap="round" stroke-linejoin="round"/>
<path d="M2.22852 22.7578H57.7714" stroke="#12DCF0" stroke-width="2" stroke-linecap="round" stroke-linejoin="round"/>
</g>
<defs>
<clipPath id="clip0_3171_3600">
<rect width="60" height="60" fill="white"/>
</clipPath>
</defs>
</svg>
