<svg width="60" height="60" viewBox="0 0 60 60" fill="none" xmlns="http://www.w3.org/2000/svg">
<path d="M53.5713 6.42969L38.957 21.044" stroke="#12DCF0" stroke-width="2" stroke-linecap="round" stroke-linejoin="round"/>
<path d="M6.42871 6.42969L21.043 21.044" stroke="#12DCF0" stroke-width="2" stroke-linecap="round" stroke-linejoin="round"/>
<path d="M6.42871 53.5674L21.043 38.9531" stroke="#12DCF0" stroke-width="2" stroke-linecap="round" stroke-linejoin="round"/>
<path d="M53.5713 53.5674L38.957 38.9531" stroke="#12DCF0" stroke-width="2" stroke-linecap="round" stroke-linejoin="round"/>
<path d="M29.9997 57.8549C45.3848 57.8549 57.8569 45.3828 57.8569 29.9978C57.8569 14.6127 45.3848 2.14062 29.9997 2.14062C14.6146 2.14062 2.14258 14.6127 2.14258 29.9978C2.14258 45.3828 14.6146 57.8549 29.9997 57.8549Z" stroke="#12DCF0" stroke-width="2" stroke-linecap="round" stroke-linejoin="round"/>
<path d="M29.9993 42.6373C36.9818 42.6373 42.6422 36.9769 42.6422 29.9944C42.6422 23.012 36.9818 17.3516 29.9993 17.3516C23.0168 17.3516 17.3564 23.012 17.3564 29.9944C17.3564 36.9769 23.0168 42.6373 29.9993 42.6373Z" stroke="#12DCF0" stroke-width="2" stroke-linecap="round" stroke-linejoin="round"/>
</svg>
